# xmcd CD database file
#
# Track frame offsets:
#	150
#	12267
#	26000
#	40990
#	52864
#	65612
#	83297
#	100117
#	112960
#	128985
#	144557
#
# Disc length: 2151 seconds
#
# Revision: 0
# Processed by: cddbd v1.5.2PL0 Copyright (c) Steve Scherf et al.
# Submitted via: CDex 1.70beta2
#
DISCID=8508650b
DTITLE=Charles Alan Rowe - Big Enough
DYEAR=1997
DGENRE=Country
TTITLE0=Double Shot Of Your Love
TTITLE1=It Ain't Written In Stone
TTITLE2=Big Enough
TTITLE3=Midnight Madness
TTITLE4=To Grandma and Grandpa's House
TTITLE5=I'm Just Goin' Crazy
TTITLE6=Daddy It's OK
TTITLE7=Tush Push
TTITLE8=Tennessee Gold
TTITLE9=No One Can Call Me A Quitter
TTITLE10=Big Enough (remix)
EXTD=YEAR: 1997
EXTT0=
EXTT1=
EXTT2=
EXTT3=
EXTT4=
EXTT5=
EXTT6=
EXTT7=
EXTT8=
EXTT9=
EXTT10=
PLAYORDER=
